<?xml version="1.0" encoding="UTF-8"?>
<svg enable-background="new 0 0 1998 2026" version="1.1" viewBox="0 0 1998 2026" xml:space="preserve" xmlns="http://www.w3.org/2000/svg">
<path d="m1422 2027c-28.029 0-56.059 0-85.011-0.23169-0.70581-3.0282-0.16724-5.8431-0.32532-8.6184-0.8042-14.121-1.7909-28.232-2.7102-42.347-1.4404-22.118-5.6986-43.708-12.702-64.709-7.3412-22.014-18.058-42.034-36.377-57.042-9.439-7.733-20.184-13.178-32.62-13.185-168.83-0.093139-337.66-0.060913-506.5 0.095215-4.6953 0.004395-9.5688 1.2045-14.052 2.7434-17.158 5.8911-29.066 18.334-38.697 32.98-15.617 23.75-22.45 50.753-26.747 78.35-2.295 14.737-2.7509 29.768-3.8425 44.681-0.66467 9.0803-0.95953 18.188-1.4205 27.283-28.029 0-56.059 0-84.933-0.33984-0.52124-2.2448 0.061645-4.1465 0.086059-6.0552 0.35681-27.856-2.5851-55.304-10.951-81.974-5.5452-17.678-13.818-33.875-28.385-45.956-7.7742-6.4474-16.52-10.61-27.146-10.6-131.26 0.11719-262.52 0.052979-393.78 0.21143-4.6298 0.005493-9.56 1.1215-13.832 2.9377-16.543 7.0327-26.614 20.51-33.996 36.196-12.031 25.563-15.62 53.029-17.413 80.819-0.53112 8.2333-0.4509 16.506-0.65082 24.761h-48.998c-8.21e-4 -675.29-8.21e-4 -1350.6-8.21e-4 -2025.9h1997.9v2025.9c-16.62 0-33.286 0-50.891-0.21216-0.73792-1.1827-0.37012-2.1511-0.35803-3.1239 0.33911-27.362-1.9958-54.435-9.614-80.825-5.3224-18.437-13.039-35.673-27.857-48.685-8.259-7.2518-17.486-12.066-29.044-12.056-132.08 0.11157-264.17 0.066529-396.25 0.077149-1.4896 1.22e-4 -3.0588-0.088745-4.4564 0.32178-13.474 3.9591-23.63 12.459-31.687 23.656-12.072 16.778-17.835 35.963-21.711 55.999-4.1515 21.461-5.7426 43.046-4.9939 64.848m-532.72-714.4c-0.63477 7.6206-1.1489 15.254-1.937 22.859-0.83917 8.0983-1.964 16.167-2.9166 24.254-1.3979 11.869-2.6882 23.75-4.1472 35.611-1.2557 10.209-2.5782 20.411-4.0649 30.588-1.4814 10.141-3.2004 20.247-4.8217 30.368-1.3331 8.3213-2.5515 16.663-4.0482 24.955-1.5231 8.4379-3.3781 16.815-4.9876 25.238-1.4239 7.4518-2.4989 14.975-4.1048 22.386-2.6837 12.383-5.6624 24.702-8.5267 37.045-3.1594 13.615-6.0154 27.311-9.5762 40.82-4.3251 16.409-8.8831 32.776-13.993 48.955-9.3775 29.693-19.196 59.248-28.919 88.831-2.0123 6.1221-2.0267 6.3011 4.6169 6.3027 40.659 0.009766 81.319 0.016968 121.98 0.018311 90.817 0.002929 181.63 0.003418 272.45-0.001343 6.3843-3.66e-4 6.4678-0.30823 4.5688-5.9475-7.9922-23.734-16.048-47.45-23.721-71.289-4.9579-15.403-9.451-30.962-13.849-46.536-2.8599-10.128-5.1957-20.404-7.7269-30.623-2.0544-8.2943-4.1187-16.587-6.0541-24.91-2.2712-9.7651-4.4617-19.55-6.5846-29.349-1.5011-6.929-2.8341-13.894-4.2374-20.844-1.6302-8.0735-3.334-16.133-4.861-24.226-1.5311-8.1149-2.8877-16.263-4.3136-24.397-1.5701-8.9573-3.2748-17.894-4.6595-26.88-1.538-9.9805-2.7584-20.01-4.1586-30.012-1.5397-10.999-3.312-21.968-4.6444-32.991-1.6138-13.352-2.8857-26.746-4.2825-40.125-1.5698-15.037-3.4668-30.051-4.585-45.122-1.637-22.063-2.858-44.161-3.9797-66.258-1.2493-24.61-2.6674-49.227-3.1367-73.858-0.54272-28.484-0.26611-56.988-0.075195-85.482 0.089355-13.316 0.73206-26.631 1.2722-39.941 0.64124-15.8 1.3087-31.601 2.2551-47.384 0.28296-4.7181-1.3358-5.8473-5.882-5.8376-65.821 0.14069-131.64 0.10168-197.46 0.10571-1.6265 6.1e-5 -3.2529 6.1e-5 -5.5885 6.1e-5 0 2.3484-0.08075 4.1351 0.01239 5.9126 1.019 19.451 2.9609 38.902 2.9361 58.351-0.074951 58.634-0.81964 117.27-1.5302 175.9-0.14105 11.639-1.1359 23.277-2.0095 34.896-1.4466 19.236-3.1147 38.455-4.7046 58.62m231.95-497.79c7.6382-17.419 14.695-35.122 23.053-52.189 12.032-24.569 25.391-48.489 37.431-73.055 6.48-13.221 11.797-26.95 11.614-42.334-0.20154-16.854-8.569-27.805-22.857-34.986-12.859-6.4628-26.792-8.2036-40.997-8.2064-87.162-0.017334-174.32-0.044128-261.49 0.0177-12.292 0.008728-24.43 1.3724-35.943 6.1533-23.446 9.7357-31.19 26.397-25.93 50.351 2.2212 10.115 5.8596 20.171 10.447 29.467 12.763 25.863 26.371 51.309 39.625 76.929 12.683 24.517 22.71 50.102 29.201 76.914 5.6825 23.472 7.9945 47.474 8.9222 71.594 0.27533 7.1571 0.25293 7.1734 7.338 7.173 60.83-0.003784 121.66-0.013366 182.49-0.021972 4.9998-7.33e-4 10-0.072815 14.999 0.014587 3.09 0.054016 4.4376-1.1071 4.572-4.3822 0.87232-21.272 1.9025-42.565 6.8468-63.369 3.1338-13.186 6.9911-26.199 10.674-40.071m689.57 416.87c-3.0485-4.1526-5.8002-8.5666-9.1921-12.417-27.518-31.231-61.492-49.834-103.43-53.485-25.764-2.2426-50.351 1.5925-74.008 11.74-28.275 12.128-50.625 31.456-67.474 57.024-11.82 17.937-19.429 37.78-22.599 58.989-2.0304 13.583-2.9518 27.242-0.8302 41.209 1.8715 12.32 4.1836 24.41 8.5063 35.99 9.9882 26.757 26.16 49.211 48.705 66.856 3.2295 2.5275 6.0913 5.7683 11.14 5.7539 55.487-0.15832 110.97-0.078247 166.46-0.15247 1.8636-0.002563 4.1189-0.44861 5.5216-1.545 6.2855-4.9135 12.786-9.6836 18.382-15.326 28.939-29.178 44.497-64.54 45.552-105.53 0.349-13.559-2.4883-27.348-5.0787-40.799-3.3544-17.416-11.181-33.134-21.652-48.306m-1463.2-62.708c-8.5326-1.2075-17.031-2.8086-25.605-3.542-18.959-1.6218-37.539 1.0439-55.563 6.8474-33.805 10.885-60.362 31.579-80.287 60.844-12.685 18.63-20.609 39.289-23.946 61.469-1.9951 13.259-2.764 26.6-0.61536 40.214 1.9674 12.466 4.3569 24.665 8.7993 36.434 9.9704 26.413 26.105 48.416 48.147 65.991 3.3308 2.656 7.6445 5.7708 11.522 5.7954 55.646 0.35632 111.3 0.23132 166.94 0.13745 1.674-0.002929 3.63-0.52661 4.9756-1.4818 13.526-9.6019 25.091-21.114 34.865-34.612 18.358-25.353 27.473-53.796 29.078-84.75 0.38333-7.395-1.1489-14.872-1.4901-22.326-0.57483-12.555-3.9986-24.442-8.3539-36.066-11.562-30.86-31.296-55.357-58.622-73.651-14.998-10.041-31.288-17.323-49.849-21.303m55.712 431.14c-0.6185-2.7179-1.3328-5.4181-1.8371-8.1571-1.4063-7.6381-2.7278-15.292-4.0785-22.94-1.6671-9.4404-3.9307-18.823-4.863-28.336-1.6695-17.034-2.5297-34.147-3.7564-51.225-0.068786-0.95788-0.3941-1.8976-0.59528-2.8239-0.66687-0.16577-1.1346-0.38391-1.6024-0.38379-48.163 0.01477-96.325 0.072876-144.49 0.02063-3.4587-0.003784-4.5398 1.1166-4.6514 4.5975-0.39993 12.473-0.9986 24.946-1.8349 37.398-0.45578 6.7861-1.372 13.555-2.3838 20.287-1.4016 9.3245-2.9222 18.638-4.6903 27.899-3.0731 16.097-5.7984 32.293-9.7341 48.184-4.3832 17.698-9.6384 35.201-15.083 52.61-8.4159 26.912-19.098 52.918-33.377 77.308-4.478 7.6487-9.6235 14.907-14.737 22.763h315.93c-14.396-20.445-25.177-41.986-33.507-64.6-9.1023-24.708-17.324-49.756-25.316-74.851-3.843-12.068-6.2739-24.586-9.3932-37.751m1169.5 84.982c-0.52307 1.4-1.0553 2.7969-1.5679 4.2007-8.4438 23.126-17.548 45.966-30.325 67.118-4.2361 7.0131-9.0046 13.704-13.67 20.755h315.11c-5.6315-9.6836-11.281-18.667-16.216-28.028-12.352-23.434-22.212-47.946-30.12-73.211-5.1533-16.466-10.062-33.02-14.56-49.675-3.7537-13.9-7.1078-27.932-9.9731-42.041-2.4368-11.999-4.3452-24.143-5.7324-36.308-2.088-18.312-3.6687-36.687-5.1461-55.061-0.52539-6.5339-0.10059-6.58-6.5387-6.5822-45.481-0.015625-90.962-0.026-136.44-0.037963-2.4752-7.33e-4 -4.9506-1.22e-4 -7.9055-1.22e-4 -0.17981 2.3203-0.36694 4.2513-0.47351 6.1869-0.67688 12.293-0.77771 24.649-2.1415 36.865-1.7246 15.448-4.1943 30.829-6.8555 46.15-2.7941 16.087-5.47 32.255-9.5099 48.052-5.2322 20.459-11.763 40.585-17.931 61.618m-642.98-1279.5c3.8317 11.557 10.828 20.827 21.609 26.372 8.0638 4.1475 16.758 7.1935 25.404 10.022 3.2805 1.0732 4.0893 2.3411 4.0619 5.4392-0.11621 13.164-0.024902 26.329-0.053589 39.493-0.003052 1.4099-0.29437 2.8192-0.53528 4.9739-7.2227-4.0033-11.833-9.2383-14.618-16.047-1.1475-2.8052-2.6406-4.1535-5.897-4.0958-10.995 0.19485-21.995 0.060669-32.993 0.10828-1.239 0.005371-2.4764 0.36697-4.0472 0.61615 1.4362 10.18 4.9619 19.033 10.374 27.146 10.55 15.816 25.851 24.593 43.904 28.976 3.2022 0.77747 3.9517 2.1218 3.8667 5.0551-0.16412 5.661-0.2804 11.343 0.034607 16.992 0.24274 4.3519-1.192 5.7538-5.642 5.7123-21.995-0.20575-43.994-0.26819-65.988-0.007385-9.7252 0.1153-19.33 1.9196-27.619 7.3768-9.0997 5.9913-14.325 14.382-14.005 25.904h262.97c-0.11584-8.9483-3.251-15.914-9.2122-21.833-8.8042-8.7412-20.056-11.073-31.594-11.361-21.317-0.53162-42.657-0.25604-63.986-0.11621-3.9602 0.02594-5.3388-1.2739-5.165-5.2053 0.26477-5.988 0.16473-11.996 0.078125-17.994-0.036621-2.5326 0.75366-3.6112 3.422-4.4216 6.6543-2.0209 13.402-4.1144 19.594-7.2141 36.836-18.439 38.917-66.652 16.026-89.052-9.604-9.3981-21.293-14.718-34.026-17.988-3.7021-0.95099-5.2151-2.419-5.1348-6.3765 0.2301-11.327 0.050903-22.662 0.089355-33.993 0.005066-1.4954 0.34021-2.9897 0.52252-4.4845 0.52966-0.1665 1.0593-0.33301 1.589-0.49951 2.5095 3.4088 5.4694 6.5845 7.3913 10.297 1.6483 3.1844 3.5679 4.1978 6.9879 4.13 9.828-0.19498 19.662-0.05365 29.494-0.096008 1.7372-0.007477 3.4731-0.26352 5.2723-0.40985 0-1.0953 0.098388-1.6044-0.014161-2.0617-6.1252-24.905-20.852-42.027-45.645-49.658-4.5626-1.4043-5.8617-3.5447-5.7003-8.124 0.35779-10.153-0.01709-20.329 0.19257-30.49 0.077575-3.7588-1.2152-4.9165-4.9139-4.8421-10.161 0.20435-20.331 0.18152-30.493 8.85e-4 -3.4994-0.062195-4.6826 1.1563-4.6234 4.6158 0.16266 9.4957-0.34607 19.019 0.20435 28.486 0.33765 5.8063-1.9827 7.7184-7.2217 8.7835-11.507 2.3392-21.726 7.5966-29.989 16.017-16.484 16.8-19.86 36.917-13.972 59.852m306.35 1410c7.3397-9.7047 9.6376-20.24 4.8267-31.728-5.8984-14.086-17.108-20.425-31.887-20.433-139.16-0.077148-278.33-0.055664-417.49 0.032227-4.5955 0.00293-9.2995 0.5603-13.766 1.636-17.12 4.1235-28.208 24.142-21.126 41.676 5.3663 13.286 17.073 21.032 31.541 21.042 37.166 0.0271 74.332 0.012573 111.5 0.012085 103-0.001343 206 0.016846 309-0.037353 10.568-0.005494 19.941-3.2014 27.411-12.201m344.32 5.6926c-19.823 0.011474-39.649-0.14465-59.468 0.16577-4.3457 0.068116-9.0303 1.0376-12.926 2.9088-10.117 4.8584-15.914 16.576-13.566 25.82 3.3949 13.364 12.529 20.952 25.297 20.953 109.78 0.00708 219.55 0.023926 329.33-0.073608 3.558-0.003174 7.3016-0.698 10.638-1.9353 11.547-4.2826 17.553-17.548 14.406-29.325-3.1107-11.642-13.165-18.486-26.348-18.492-88.788-0.039795-177.58-0.020752-267.36-0.020996m-1343 49.822c79.957 0.005982 159.91 0.035523 239.87-0.060058 3.5636-0.004273 7.3402-0.59131 10.65-1.8633 11.79-4.5308 17.193-16.638 15.566-25.696-2.654-14.776-12.22-22.18-27.386-22.181-108.28-0.002563-216.55-0.015136-324.83 0.048707-3.2764 0.001831-6.5802 0.65771-9.8238 1.2631-13.715 2.5596-19.894 16.279-18.767 25.779 1.5678 13.214 11.69 22.612 24.263 22.672 29.817 0.14368 59.635 0.040649 90.452 0.037353m1363-59.158c80.963 0.00232 161.93 0.006226 242.89 0.004029 8.0488-2.44e-4 12.791-4.41 12.803-11.856 0.011475-7.0052-4.9504-11.704-12.646-11.705-105.79-0.014649-211.57-0.006836-317.36 0.021972-8.1451 0.00232-12.661 4.3743-12.66 11.982 9.77e-4 7.22 4.6609 11.566 12.502 11.569 24.489 0.009034 48.978-0.0083 74.467-0.015381m-1336-0.01123c68.959 0.002319 137.92 0.012451 206.88-0.028442 2.11-0.001221 4.4061-0.092163 6.2947-0.89539 5.7157-2.4305 8.054-7.8789 6.6446-14.525-0.96594-4.5549-6.5297-8.0782-12.926-8.0791-105.44-0.013794-210.87-0.020142-316.31-0.01294-8.3673 6.11e-4 -13.206 4.6449-13.362 12.082-0.13359 6.3448 6.1825 11.711 13.35 11.636 36.141-0.38049 72.288-0.17615 109.43-0.177m787-846.76c17.5-3.66e-4 34.999 0.021912 52.498-0.025146 2.6549-0.007202 5.3358-0.1571 7.9583-0.55072 7.2328-1.0854 13.034-8.3221 12.301-15.14-0.8418-7.8253-6.9683-13.733-14.524-13.734-73.997-0.011169-147.99 0.006226-221.99 0.048767-7.0926 0.00409-13.251 6.1565-13.994 13.728-0.66138 6.7332 4.9651 14.069 11.814 14.903 4.7791 0.58222 9.6274 0.82617 14.445 0.82861 50.165 0.025635 100.33-0.028259 151.49-0.059265m640 511.83c25.997 0.001221 51.994 0.023926 77.991-0.036865 2.1139-0.004883 4.4131-0.15247 6.3042-0.97424 5.296-2.3021 7.5129-7.3629 6.2579-13.29-1.0448-4.9351-6.0236-8.6892-11.97-8.7169-15.165-0.070679-30.33-0.029053-45.495-0.025635-41.162 0.009277-82.324 0.051758-123.49-0.008301-4.5917-0.006714-9.2982 0.74475-11.323 4.7651-1.6877 3.3508-2.3301 8.1039-1.3774 11.689 1.2111 4.5582 5.5294 6.6573 10.608 6.646 30.496-0.068115 60.993-0.042237 92.489-0.047974m-1457.9-23.027c-2.1658 0.010986-4.3378-0.079224-6.4964 0.05188-7.0084 0.42542-11.395 5.1971-11.205 12.084 0.18967 6.8881 4.5243 10.872 12.106 10.876 56.814 0.030151 113.63 0.024536 170.44 0.026123 0.99896 1.22e-4 2.0117 0.049682 2.9946-0.089111 5.067-0.71546 8.9883-5.1405 9.136-10.24 0.24042-8.3002-4.4099-12.721-13.548-12.723-54.148-0.012207-108.3 0.00122-163.43 0.013672z" fill="#2A644F"/>
<path d="m661.47 2027c-0.007629-9.0953 0.28723-18.203 0.9519-27.283 1.0916-14.913 1.5475-29.944 3.8425-44.681 4.2975-27.596 11.13-54.599 26.747-78.35 9.6312-14.647 21.539-27.089 38.697-32.98 4.4827-1.5389 9.3563-2.739 14.052-2.7434 168.83-0.15613 337.66-0.18835 506.5-0.095215 12.435 0.006836 23.181 5.4521 32.62 13.185 18.319 15.008 29.036 35.028 36.377 57.042 7.0034 21.001 11.262 42.591 12.702 64.709 0.91931 14.115 1.906 28.225 2.7102 42.347 0.15808 2.7753-0.38049 5.5902-0.13062 8.6184-224.55 0.23169-449.57 0.23169-675.06 0.23169z" fill="#ECE9D7"/>
<path d="m1422.5 2027c-1.2173-21.802 0.37378-43.386 4.5253-64.848 3.8759-20.036 9.6392-39.222 21.711-55.999 8.057-11.198 18.213-19.697 31.687-23.656 1.3976-0.41052 2.9668-0.32166 4.4564-0.32178 132.08-0.01062 264.17 0.034424 396.25-0.077149 11.557-0.009765 20.785 4.8043 29.044 12.056 14.819 13.012 22.535 30.248 27.857 48.685 7.6182 26.39 9.9531 53.463 9.614 80.825-0.012085 0.97278-0.37988 1.9412-0.097901 3.1239-174.54 0.21216-349.56 0.21216-525.05 0.21216z" fill="#ECE9D7"/>
<path d="m50.469 2027c-0.26874-8.2546-0.34896-16.527 0.18216-24.761 1.7927-27.79 5.3821-55.256 17.413-80.819 7.3825-15.686 17.454-29.163 33.996-36.196 4.2724-1.8163 9.2026-2.9323 13.832-2.9377 131.26-0.15845 262.52-0.094238 393.78-0.21143 10.626-0.009521 19.372 4.1528 27.146 10.6 14.567 12.08 22.84 28.278 28.385 45.956 8.3655 26.669 11.307 54.118 10.951 81.974-0.024414 1.9087-0.6073 3.8104-0.54199 6.0552-174.63 0.33984-349.65 0.33984-525.14 0.33984z" fill="#ECE9D7"/>
<path d="m889.29 1312.1c1.5823-19.695 3.2504-38.915 4.697-58.151 0.87366-11.618 1.8685-23.257 2.0095-34.896 0.71057-58.631 1.4553-117.26 1.5302-175.9 0.024842-19.449-1.9171-38.9-2.9361-58.351-0.09314-1.7775-0.01239-3.5641-0.01239-5.9126 2.3356 0 3.962 0 5.5885-6.1e-5 65.822-0.004029 131.64 0.034973 197.46-0.10571 4.5461-0.009705 6.1649 1.1195 5.882 5.8376-0.94641 15.783-1.6139 31.584-2.2551 47.384-0.54016 13.31-1.1829 26.625-1.2722 39.941-0.19092 28.494-0.46753 56.997 0.075195 85.482 0.46936 24.631 1.8875 49.248 3.1367 73.858 1.1217 22.097 2.3428 44.195 3.9797 66.258 1.1182 15.071 3.0151 30.085 4.585 45.122 1.3967 13.378 2.6687 26.772 4.2825 40.125 1.3324 11.023 3.1047 21.993 4.6444 32.991 1.4001 10.002 2.6206 20.031 4.1586 30.012 1.3848 8.986 3.0895 17.923 4.6595 26.88 1.4259 8.1346 2.7825 16.282 4.3136 24.397 1.527 8.093 3.2307 16.153 4.861 24.226 1.4033 6.9501 2.7363 13.916 4.2374 20.844 2.1229 9.7986 4.3134 19.583 6.5846 29.349 1.9354 8.3224 3.9996 16.615 6.0541 24.91 2.5312 10.219 4.8671 20.496 7.7269 30.623 4.3981 15.575 8.8912 31.134 13.849 46.536 7.6727 23.838 15.729 47.554 23.721 71.289 1.8989 5.6393 1.8154 5.9471-4.5688 5.9475-90.817 0.004761-181.63 0.004272-272.45 0.001343-40.659-0.001343-81.319-0.008545-121.98-0.018311-6.6437-0.001587-6.6292-0.18066-4.6169-6.3027 9.7234-29.583 19.542-59.138 28.919-88.831 5.1096-16.179 9.6675-32.546 13.993-48.955 3.5609-13.51 6.4169-27.205 9.5762-40.82 2.8643-12.344 5.843-24.662 8.5267-37.045 1.6059-7.4104 2.6809-14.934 4.1048-22.386 1.6095-8.423 3.4645-16.801 4.9876-25.238 1.4967-8.292 2.7151-16.634 4.0482-24.955 1.6212-10.121 3.3403-20.227 4.8217-30.368 1.4867-10.177 2.8092-20.38 4.0649-30.588 1.459-11.861 2.7493-23.742 4.1472-35.611 0.95252-8.0869 2.0774-16.155 2.9166-24.254 0.78802-7.6047 1.3022-15.238 1.9446-23.328z" fill="#ECE9D7"/>
<path d="m1121.2 815.21c-3.6079 13.481-7.4652 26.495-10.599 39.681-4.9443 20.804-5.9745 42.097-6.8468 63.369-0.1344 3.2751-1.4821 4.4362-4.572 4.3822-4.9983-0.087402-9.999-0.01532-14.999-0.014587-60.83 0.008606-121.66 0.018188-182.49 0.021972-7.0851 4.28e-4 -7.0627-0.015869-7.338-7.173-0.92767-24.12-3.2397-48.122-8.9222-71.594-6.4911-26.812-16.518-52.397-29.201-76.914-13.254-25.621-26.862-51.066-39.625-76.929-4.5875-9.2964-8.2259-19.352-10.447-29.467-5.26-23.954 2.4838-40.615 25.93-50.351 11.514-4.7809 23.652-6.1445 35.943-6.1533 87.162-0.061828 174.32-0.035034 261.49-0.0177 14.205 0.002808 28.138 1.7436 40.997 8.2064 14.288 7.1808 22.655 18.132 22.857 34.986 0.18384 15.384-5.1335 29.113-11.614 42.334-12.041 24.566-25.399 48.485-37.431 73.055-8.3578 17.066-15.415 34.77-23.128 52.579z" fill="#ECE9D6"/>
<path d="m1811 1232c10.268 14.876 18.095 30.594 21.449 48.01 2.5905 13.451 5.4277 27.24 5.0787 40.799-1.0552 40.992-16.613 76.354-45.552 105.53-5.5959 5.642-12.096 10.412-18.382 15.326-1.4027 1.0964-3.658 1.5425-5.5216 1.545-55.487 0.074219-110.98-0.005859-166.46 0.15247-5.0488 0.014404-7.9106-3.2264-11.14-5.7539-22.545-17.645-38.717-40.098-48.705-66.856-4.3228-11.58-6.6349-23.67-8.5063-35.99-2.1216-13.967-1.2002-27.625 0.8302-41.209 3.1702-21.209 10.78-41.052 22.599-58.989 16.849-25.569 39.199-44.896 67.474-57.024 23.657-10.148 48.244-13.983 74.008-11.74 41.942 3.6508 75.916 22.253 103.43 53.485 3.392 3.8499 6.1437 8.2639 9.3956 12.713z" fill="#ECE9D7"/>
<path d="m347.95 1169.1c18.161 3.8541 34.451 11.136 49.449 21.177 27.325 18.293 47.059 42.791 58.622 73.651 4.3553 11.624 7.779 23.511 8.3539 36.066 0.34125 7.4536 1.8734 14.931 1.4901 22.326-1.6046 30.955-10.719 59.397-29.078 84.75-9.7745 13.499-21.34 25.01-34.865 34.612-1.3457 0.9552-3.3017 1.4789-4.9756 1.4818-55.648 0.093872-111.3 0.21887-166.94-0.13745-3.8775-0.024658-8.1912-3.1394-11.522-5.7954-22.042-17.575-38.177-39.579-48.147-65.991-4.4425-11.769-6.8319-23.968-8.7993-36.434-2.1487-13.614-1.3797-26.955 0.61536-40.214 3.3375-22.18 11.262-42.839 23.946-61.469 19.925-29.264 46.482-49.959 80.287-60.844 18.024-5.8035 36.604-8.4692 55.563-6.8474 8.5731 0.7334 17.072 2.3345 26.005 3.6688z" fill="#ECE9D7"/>
<path d="m403.29 1600.5c3.0948 12.74 5.5257 25.258 9.3687 37.326 7.9915 25.095 16.214 50.143 25.316 74.851 8.3307 22.614 19.111 44.155 33.507 64.6h-315.93c5.1131-7.8564 10.259-15.115 14.737-22.763 14.279-24.39 24.961-50.396 33.377-77.308 5.4443-17.41 10.699-34.912 15.083-52.61 3.9357-15.891 6.6609-32.087 9.7341-48.184 1.7681-9.2612 3.2887-18.575 4.6903-27.899 1.0118-6.7314 1.928-13.501 2.3838-20.287 0.83627-12.452 1.4349-24.924 1.8349-37.398 0.1116-3.481 1.1927-4.6013 4.6514-4.5975 48.162 0.052246 96.325-0.00586 144.49-0.02063 0.46771-1.22e-4 0.93549 0.21802 1.6024 0.38379 0.20117 0.92627 0.52649 1.866 0.59528 2.8239 1.2267 17.078 2.0869 34.191 3.7564 51.225 0.93234 9.5127 3.1959 18.895 4.863 28.336 1.3507 7.6483 2.6722 15.302 4.0785 22.94 0.50427 2.739 1.2186 5.4392 1.8616 8.5829z" fill="#EBE8D6"/>
<path d="m1572.9 1684.7c6.0699-20.651 12.601-40.777 17.833-61.236 4.0399-15.797 6.7158-31.964 9.5099-48.052 2.6611-15.321 5.1309-30.703 6.8555-46.15 1.3638-12.216 1.4646-24.572 2.1415-36.865 0.10657-1.9355 0.2937-3.8666 0.47351-6.1869 2.955 0 5.4303-6.11e-4 7.9055 1.22e-4 45.481 0.011963 90.962 0.022338 136.44 0.037963 6.4381 0.002198 6.0133 0.048218 6.5387 6.5822 1.4774 18.374 3.0581 36.749 5.1461 55.061 1.3872 12.166 3.2957 24.31 5.7324 36.308 2.8654 14.109 6.2195 28.141 9.9731 42.041 4.4978 16.655 9.4064 33.209 14.56 49.675 7.9071 25.264 17.767 49.776 30.12 73.211 4.9341 9.3607 10.584 18.344 16.216 28.028h-315.11c4.6654-7.0504 9.434-13.742 13.67-20.755 12.777-21.152 21.881-43.992 30.325-67.118 0.51257-1.4038 1.0448-2.8007 1.666-4.5824z" fill="#EBE8D6"/>
<path d="m929.66 405.28c-5.7214-22.571-2.3455-42.688 14.139-59.488 8.2621-8.4204 18.482-13.678 29.989-16.017 5.239-1.065 7.5593-2.9771 7.2217-8.7835-0.55042-9.4665-0.041687-18.99-0.20435-28.486-0.059204-3.4595 1.1239-4.6779 4.6234-4.6158 10.162 0.18063 20.332 0.20346 30.493-8.85e-4 3.6987-0.074371 4.9915 1.0833 4.9139 4.8421-0.20966 10.161 0.16522 20.337-0.19257 30.49-0.16138 4.5793 1.1378 6.7198 5.7003 8.124 24.793 7.6309 39.519 24.753 45.645 49.658 0.11255 0.45728 0.014161 0.96643 0.014161 2.0617-1.7992 0.14633-3.5352 0.40237-5.2723 0.40985-9.8315 0.042358-19.666-0.098969-29.494 0.096008-3.42 0.06781-5.3396-0.94559-6.9879-4.13-1.9219-3.713-4.8818-6.8886-7.3913-10.297-0.52966 0.1665-1.0593 0.33301-1.589 0.49951-0.18231 1.4948-0.51746 2.9891-0.52252 4.4845-0.038452 11.331 0.14075 22.666-0.089355 33.993-0.080322 3.9575 1.4326 5.4255 5.1348 6.3765 12.732 3.2704 24.422 8.5899 34.026 17.988 22.892 22.401 20.81 70.613-16.026 89.052-6.1921 3.0997-12.94 5.1932-19.594 7.2141-2.6683 0.81036-3.4586 1.889-3.422 4.4216 0.086609 5.9976 0.18665 12.006-0.078125 17.994-0.17377 3.9314 1.2048 5.2312 5.165 5.2053 21.329-0.13983 42.669-0.41541 63.986 0.11621 11.538 0.28772 22.79 2.6194 31.594 11.361 5.9612 5.9183 9.0963 12.884 9.2122 21.833h-262.97c-0.32037-11.521 4.9049-19.913 14.005-25.904 8.2885-5.4572 17.894-7.2615 27.619-7.3768 21.994-0.2608 43.993-0.19836 65.988 0.007385 4.45 0.041565 5.8848-1.3604 5.642-5.7123-0.315-5.6483-0.19873-11.331-0.034607-16.992 0.085022-2.9333-0.66449-4.2776-3.8667-5.0551-18.053-4.383-33.354-13.161-43.904-28.976-5.4117-8.113-8.9374-16.966-10.374-27.146 1.5708-0.24918 2.8082-0.61078 4.0472-0.61615 10.998-0.047607 21.998 0.086578 32.993-0.10828 3.2564-0.057709 4.7495 1.2906 5.897 4.0958 2.7852 6.8087 7.3958 12.044 14.618 16.047 0.24091-2.1547 0.53223-3.564 0.53528-4.9739 0.028687-13.165-0.062622-26.33 0.053589-39.493 0.027405-3.0981-0.78137-4.3661-4.0619-5.4392-8.6453-2.8283-17.34-5.8742-25.404-10.022-10.781-5.5453-17.777-14.815-21.776-26.736m91.088 72.208v15.04c9.7297-4.5575 13.743-11.488 13.219-21.384-0.42664-8.0561-4.6741-13.724-13.218-16.656 0 7.5349 0 14.77-3.05e-4 23m-53.672-92.403c0.63532 8.3787 4.8807 13.973 13.302 17.372v-38.469c-9.2048 4.283-13.19 11.048-13.302 21.098z" fill="#E9E8D5"/>
<path d="m1235.9 1815.9c-7.2358 8.729-16.609 11.925-27.177 11.93-103 0.054199-206 0.03601-309 0.037353-37.166 4.88e-4 -74.332 0.015015-111.5-0.012085-14.468-0.01062-26.175-7.7557-31.541-21.042-7.0816-17.534 4.0067-37.553 21.126-41.676 4.4664-1.0757 9.1704-1.6331 13.766-1.636 139.16-0.087891 278.33-0.10938 417.49-0.032227 14.779 0.008301 25.989 6.3472 31.887 20.433 4.8109 11.488 2.5131 22.023-5.0613 31.998z" fill="#EAE8D6"/>
<path d="m1581 1821.4c89.288 2.44e-4 178.08-0.018799 266.86 0.020996 13.183 0.005981 23.238 6.8505 26.348 18.492 3.1469 11.777-2.8589 25.043-14.406 29.325-3.3365 1.2373-7.0802 1.9321-10.638 1.9353-109.78 0.097534-219.55 0.080688-329.33 0.073608-12.767-8.55e-4 -21.902-7.5889-25.297-20.953-2.3481-9.2437 3.4485-20.962 13.566-25.82 3.896-1.8712 8.5806-2.8407 12.926-2.9088 19.819-0.31042 39.645-0.1543 59.968-0.16577z" fill="#E9E7D6"/>
<path d="m237 1871.2c-30.317 0.003296-60.135 0.10632-89.952-0.037353-12.573-0.060669-22.695-9.4584-24.263-22.672-1.1272-9.4996 5.0522-23.219 18.767-25.779 3.2436-0.60535 6.5474-1.2612 9.8238-1.2631 108.28-0.063843 216.55-0.05127 324.83-0.048707 15.165 3.67e-4 24.732 7.4044 27.386 22.181 1.627 9.0582-3.7757 21.166-15.566 25.696-3.3098 1.272-7.0864 1.859-10.65 1.8633-79.957 0.095581-159.91 0.06604-240.37 0.060058z" fill="#E9E7D6"/>
<path d="m1600 1812c-24.989 0.007081-49.478 0.024415-73.967 0.015381-7.8412-0.002929-12.501-4.3488-12.502-11.569-9.76e-4 -7.6073 4.5151-11.979 12.66-11.982 105.79-0.028808 211.57-0.036621 317.36-0.021972 7.6953 0.001098 12.657 4.7 12.646 11.705-0.012329 7.4457-4.7544 11.855-12.803 11.856-80.963 0.002197-161.93-0.001709-243.39-0.004029z" fill="#E4E5D2"/>
<path d="m264 1812c-36.645 8.54e-4 -72.792-0.20349-108.93 0.177-7.1676 0.075317-13.484-5.2909-13.35-11.636 0.15657-7.4373 4.9949-12.082 13.362-12.082 105.44-0.007202 210.87-8.54e-4 316.31 0.01294 6.3963 8.54e-4 11.96 3.5242 12.926 8.0791 1.4094 6.6461-0.92889 12.094-6.6446 14.525-1.8886 0.80322-4.1847 0.89416-6.2947 0.89539-68.959 0.040893-137.92 0.030761-207.38 0.028442z" fill="#E6E7D5"/>
<path d="m1051 965.25c-50.665 0.031372-100.83 0.085266-150.99 0.059631-4.8176-0.002441-9.6658-0.2464-14.445-0.82861-6.8484-0.83423-12.475-8.1701-11.814-14.903 0.74378-7.5717 6.9017-13.724 13.994-13.728 73.997-0.042541 147.99-0.059936 221.99-0.048767 7.5558 0.001099 13.682 5.9088 14.524 13.734 0.73352 6.8175-5.0681 14.054-12.301 15.14-2.6224 0.39362-5.3033 0.54352-7.9583 0.55072-17.499 0.047058-34.999 0.02478-52.998 0.02478z" fill="#E6E7D5"/>
<path d="m1691 1477.1c-30.996 0.005737-61.493-0.020141-91.989 0.047974-5.079 0.011352-9.3973-2.0878-10.608-6.646-0.95264-3.5852-0.3103-8.3383 1.3774-11.689 2.0249-4.0204 6.7314-4.7719 11.323-4.7651 41.162 0.060059 82.324 0.017578 123.49 0.008301 15.165-0.003418 30.33-0.045044 45.495 0.025635 5.9463 0.02771 10.925 3.7819 11.97 8.7169 1.255 5.9274-0.96191 10.988-6.2579 13.29-1.8911 0.82178-4.1903 0.96936-6.3042 0.97424-25.997 0.060791-51.994 0.038086-78.491 0.036865z" fill="#E6E7D5"/>
<path d="m234.05 1454.1c54.64-0.008667 108.79-0.022094 162.94-0.009887 9.1385 0.002075 13.789 4.4226 13.548 12.723-0.1477 5.0999-4.0689 9.5249-9.136 10.24-0.98294 0.13879-1.9956 0.089233-2.9946 0.089111-56.814-0.001587-113.63 0.004028-170.44-0.026123-7.5815-0.003906-11.916-3.988-12.106-10.876-0.18964-6.8873 4.1967-11.659 11.205-12.084 2.1585-0.1311 4.3305-0.040894 6.9883-0.055665z" fill="#E6E7D5"/>
<path d="m1020.8 476.99c1.22e-4 -7.7327 1.22e-4 -14.968 1.22e-4 -22.503 8.5442 2.9322 12.792 8.5997 13.218 16.656 0.52417 9.8963-3.4889 16.827-13.219 21.384 0-5.3339 0-10.187 1.83e-4 -15.538z" fill="#2A644F"/>
<path d="m967.07 384.69c0.12634-9.6571 4.1116-16.422 13.316-20.705v38.469c-8.4213-3.3988-12.667-8.9929-13.316-17.764z" fill="#2A644F"/>
</svg>
